<svg xmlns="http://www.w3.org/2000/svg" version="1.1" xmlns:xlink="http://www.w3.org/1999/xlink" width="674.81" height="674.81"><svg id="SvgjsSvg1003" data-name="Capa 2" xmlns="http://www.w3.org/2000/svg" viewBox="0 0 674.81 674.81">
  <defs>
    <style>
      .cls-1 {
        fill: #fff;
      }

      .cls-2 {
        fill: #1a1a1a;
      }
    </style>
  </defs>
  <g id="SvgjsG1002" data-name="Capa 1">
    <g>
      <rect class="cls-1" x="0" y="0" width="674.81" height="674.81" rx="337.4" ry="337.4"></rect>
      <path class="cls-2" d="M303.27,306.94l28.26-111.09c1.62-6.37,10.67-6.36,12.27.01l30.44,120.78,87.85-8.31c6.86-.65,10.1,8.24,4.43,12.15l-76.45,52.84,20.68,68.42c2.17,7.18-6.37,12.77-12.08,7.89l-53.53-45.67-88.14,49.33c-6.31,3.53-13.21-3.59-9.48-9.78l49.62-82.44-74.35-37.56c-6.6-3.34-4.44-13.27,2.95-13.56l77.52-3.01Z"></path>
    </g>
  </g>
</svg><style>@media (prefers-color-scheme: light) { :root { filter: none; } }
@media (prefers-color-scheme: dark) { :root { filter: none; } }
</style></svg>